<svg id="Capa_1" data-name="Capa 1" xmlns="http://www.w3.org/2000/svg" viewBox="0 0 449.386 180"><defs><style>.cls-1{fill:#929292;}.cls-2{fill:#e6332a;}.cls-3{fill:#8fa82e;}.cls-4{fill:#abbd00;}.cls-5{fill:#cdd500;}</style></defs><path class="cls-1" d="M101.2243,70.1238a13.64974,13.64974,0,0,1-1.836-.8516,5.70449,5.70449,0,0,1-1.3857-1.1152,4.77326,4.77326,0,0,1-.8818-1.5469,7.3308,7.3308,0,0,1,.2119-4.8691,5.41824,5.41824,0,0,1,1.4814-1.9649,6.60778,6.60778,0,0,1,2.3145-1.2012,10.57367,10.57367,0,0,1,3.0332-.4082,14.72554,14.72554,0,0,1,2.8691.2715,21.9812,21.9812,0,0,1,2.8086.7832,10.84081,10.84081,0,0,1-.9551,3.4258c-.3047-.123-.60939-.2441-.9189-.3633a7.09389,7.09389,0,0,0-.9951-.2988,10.38774,10.38774,0,0,0-1.1788-.1934,13.40434,13.40434,0,0,0-1.5019-.0761,5.754,5.754,0,0,0-1.042.0898,2.83958,2.83958,0,0,0-.9404.3281,1.79537,1.79537,0,0,0-.6895.7051,2.3755,2.3755,0,0,0-.2803,1.2188,2.22747,2.22747,0,0,0,.212,1.0058,2.15373,2.15373,0,0,0,.582.6934,3.39211,3.39211,0,0,0,.8037.4746c.29981.1348.6045.2578.9014.3789l1.8008.6914a22.09713,22.09713,0,0,1,2.0712.9336,5.45537,5.45537,0,0,1,1.5762,1.1797,4.97611,4.97611,0,0,1,1.0078,1.7129,7.33546,7.33546,0,0,1,.36041,2.4804,6.82146,6.82146,0,0,1-.55671,2.795,6.029,6.029,0,0,1-1.6045,2.164,7.69207,7.69207,0,0,1-2.5966,1.4102,11.25329,11.25329,0,0,1-3.5547.5117c-.6621,0-1.2598-.0195-1.77349-.0684a12.78216,12.78216,0,0,1-1.49611-.1875,14.00373,14.00373,0,0,1-1.3935-.3457c-.4609-.1406-.94139-.3125-1.44339-.5117a12.59868,12.59868,0,0,1,.34089-1.8183c.1562-.6329.3369-1.2657.5615-1.9063a15.882,15.882,0,0,0,2.375.7656,10.56679,10.56679,0,0,0,2.376.2539,5.36534,5.36534,0,0,0,2.9648-.7031,2.37385,2.37385,0,0,0,1.083-2.1484,2.545,2.545,0,0,0-.2519-1.2012,2.59868,2.59868,0,0,0-.6622-.8125,3.77145,3.77145,0,0,0-.915-.5527c-.3447-.1485-.6904-.2989-1.0478-.4395Z"/><path class="cls-1" d="M113.8073,58.5281h12.2568a9.6366,9.6366,0,0,1,.1817,1.8339,9.99216,9.99216,0,0,1-.1817,1.8946H118.192v4.6855h6.24709a9.99487,9.99487,0,0,1,.1768,1.8633,9.81688,9.81688,0,0,1-.1768,1.8867H118.192v5.711h8.08109a9.60141,9.60141,0,0,1,.1846,1.832,9.91563,9.91563,0,0,1-.1846,1.8906H113.8073Z"/><path class="cls-1" d="M129.9684,58.5281c.8818-.0977,1.7012-.1836,2.4717-.2539.7705-.0684,1.6318-.1075,2.5791-.1075a17.16659,17.16659,0,0,1,3.2549.3067,8.68133,8.68133,0,0,1,2.8965,1.0625,6.0125,6.0125,0,0,1,2.0859,2.0703,6.26883,6.26883,0,0,1,.8037,3.3183,6.71916,6.71916,0,0,1-.3105,2.1192,6.36429,6.36429,0,0,1-.76569,1.6094,6.52332,6.52332,0,0,1-1,1.1836,7.89338,7.89338,0,0,1-1.01461.8007l-.5166.3301,5.2519,9.1289c-.3984.0391-.8183.0821-1.2568.1211-.4404.0391-.8945.0606-1.3555.0606a13.95232,13.95232,0,0,1-2.2539-.1817l-5.6426-10.0312.7149-.3633c.2851-.1367.625-.3184,1.0225-.543a6.13139,6.13139,0,0,0,1.1591-.8242,4.453,4.453,0,0,0,.9473-1.1992,3.43355,3.43355,0,0,0,.3857-1.668,3.3833,3.3833,0,0,0-1.0761-2.7793,4.30514,4.30514,0,0,0-2.7959-.8828,6.85565,6.85565,0,0,0-1.1993.0918V80.1257c-.3652.041-.7226.0762-1.083.1074-.3574.0274-.7099.045-1.0556.045-.3369,0-.6953-.0098-1.083-.0313-.378-.0215-.77049-.0625-1.1641-.1211Z"/><path class="cls-1" d="M145.7047,58.5281c.3399-.0391.7334-.0782,1.1719-.1172.44041-.041.8262-.0606,1.1709-.0606a17.4633,17.4633,0,0,1,2.4033.1778l4.71,17.0332,4.7783-17.0332c.4063-.0547.791-.0977,1.1592-.1172.3779-.0235.751-.0313,1.123-.0313.3653,0,.7305.0078,1.1036.0313.37011.0195.7587.0625,1.1484.1172l-6.9649,21.5976c-.4179.0586-.831.1074-1.2168.1348-.3925.0312-.7978.0469-1.246.0469-.3985,0-.7911-.0157-1.169-.0469-.3808-.0274-.7988-.0762-1.2598-.1348Z"/><path class="cls-1" d="M166.8844,58.5281a13.97417,13.97417,0,0,1,2.1944-.1778,14.58071,14.58071,0,0,1,2.2187.1778V80.1257a13.89734,13.89734,0,0,1-2.1943.1817,13.71922,13.71922,0,0,1-2.2188-.1817Z"/><path class="cls-1" d="M189.7692,76.0398a11.24254,11.24254,0,0,1,.6426,1.7285,11.82807,11.82807,0,0,1,.3779,1.7871,14.54537,14.54537,0,0,1-2.8086.752,19.81112,19.81112,0,0,1-2.6885.1816,11.261,11.261,0,0,1-4.47359-.8281,8.88337,8.88337,0,0,1-3.22661-2.3125,9.83792,9.83792,0,0,1-1.9697-3.5293,14.575,14.575,0,0,1-.665-4.4492,13.99923,13.99923,0,0,1,.6982-4.459,10.2494,10.2494,0,0,1,1.99711-3.5586,9.0326,9.0326,0,0,1,3.209-2.3418,10.66525,10.66525,0,0,1,4.33789-.8438,18.223,18.223,0,0,1,2.6679.1836,11.69608,11.69608,0,0,1,2.624.75,6.70664,6.70664,0,0,1-.3652,1.7559c-.1963.5742-.4199,1.1484-.6572,1.7285a13.62437,13.62437,0,0,0-1.8613-.5117,11.00861,11.00861,0,0,0-1.9219-.1485,5.4117,5.4117,0,0,0-4.4336,1.877,8.61983,8.61983,0,0,0-1.542,5.5684q0,7.33005,6.2119,7.3339a11.42049,11.42049,0,0,0,1.9502-.1484A14.18537,14.18537,0,0,0,189.7692,76.0398Z"/><path class="cls-1" d="M194.0661,58.5281a13.96618,13.96618,0,0,1,2.1923-.1778,14.599,14.599,0,0,1,2.2217.1778V80.1257a13.98234,13.98234,0,0,1-2.1943.1817,13.72008,13.72008,0,0,1-2.2197-.1817Z"/><path class="cls-1" d="M211.4801,80.489a9.64749,9.64749,0,0,1-4.20109-.8457,7.83152,7.83152,0,0,1-2.91221-2.3223,9.9954,9.9954,0,0,1-1.6982-3.5175,16.64263,16.64263,0,0,1-.5537-4.4336,17.024,17.024,0,0,1,.5537-4.459,10.09772,10.09772,0,0,1,1.6982-3.5586,7.80238,7.80238,0,0,1,2.91221-2.3418,10.907,10.907,0,0,1,8.413,0,7.8146,7.8146,0,0,1,2.90919,2.3418,10.26934,10.26934,0,0,1,1.6983,3.5586,17.02625,17.02625,0,0,1,.5566,4.459,16.64389,16.64389,0,0,1-.5566,4.4336,10.16642,10.16642,0,0,1-1.6983,3.5175,7.84381,7.84381,0,0,1-2.90919,2.3223A9.68242,9.68242,0,0,1,211.4801,80.489Zm0-3.668q4.6626,0,4.6651-7.4511a11.00451,11.00451,0,0,0-1.1309-5.584,3.78838,3.78838,0,0,0-3.499-1.8614q-4.72275,0-4.7178,7.4454Q206.7975,76.82595,211.4801,76.821Z"/><path class="cls-1" d="M74.6725,102.2781a13.08458,13.08458,0,0,1,2.1582-.1778,13.72754,13.72754,0,0,1,2.1914.1778v10.6054a14.46049,14.46049,0,0,1-3.2539.7657,26.64408,26.64408,0,0,1-2.9648.1914,11.93715,11.93715,0,0,1-4.6231-.8243,9.00515,9.00515,0,0,1-3.3095-2.3144,9.77249,9.77249,0,0,1-1.9776-3.5293,14.41119,14.41119,0,0,1-.6621-4.4453,13.90885,13.90885,0,0,1,.6973-4.459,10.30025,10.30025,0,0,1,1.9951-3.5605,9.02453,9.02453,0,0,1,3.209-2.3418,10.6714,10.6714,0,0,1,4.3457-.8379,18.54663,18.54663,0,0,1,2.6797.1757,10.84006,10.84006,0,0,1,2.6074.75,6.76859,6.76859,0,0,1-.3604,1.7579c-.2011.5742-.41789,1.1464-.6621,1.7265a13.97721,13.97721,0,0,0-1.8613-.5097,10.41929,10.41929,0,0,0-1.9219-.1504A5.42473,5.42473,0,0,0,68.526,97.157a8.60457,8.60457,0,0,0-1.54981,5.5703q0,3.69435,1.5371,5.5137a5.56216,5.56216,0,0,0,4.5059,1.8164,5.92759,5.92759,0,0,0,.915-.0606c.2696-.043.5137-.0781.7383-.1211Z"/><path class="cls-1" d="M82.8688,91.8874h12.25a8.7334,8.7334,0,0,1,.1885,1.8321,9.07749,9.07749,0,0,1-.1885,1.8906H87.2545v4.6855h6.2471a10.01371,10.01371,0,0,1,.1807,1.8594,9.87586,9.87586,0,0,1-.1807,1.8965H87.2545v5.7031h8.0879a9.92394,9.92394,0,0,1,.1768,1.834,10.11809,10.11809,0,0,1-.1768,1.8906H82.8688Z"/><path class="cls-1" d="M107.6198,113.8406a9.674,9.674,0,0,1-4.2041-.8438,7.84719,7.84719,0,0,1-2.917-2.3223,10.18826,10.18826,0,0,1-1.6924-3.5136,16.45293,16.45293,0,0,1-.5615-4.4336,16.73637,16.73637,0,0,1,.5615-4.459,10.32283,10.32283,0,0,1,1.6924-3.5605,7.78023,7.78023,0,0,1,2.917-2.3418,10.96081,10.96081,0,0,1,8.4062,0,7.76723,7.76723,0,0,1,2.9199,2.3418,10.35477,10.35477,0,0,1,1.6895,3.5605,16.94207,16.94207,0,0,1,.5566,4.459,16.65462,16.65462,0,0,1-.5566,4.4336,10.21972,10.21972,0,0,1-1.6895,3.5136,7.83393,7.83393,0,0,1-2.9199,2.3223A9.63161,9.63161,0,0,1,107.6198,113.8406Zm0-3.6602q4.6479,0,4.65521-7.4531a11.07826,11.07826,0,0,0-1.123-5.5879,3.80288,3.80288,0,0,0-3.499-1.8613q-4.71976,0-4.71781,7.4492Q102.9352,110.1775,107.6198,110.1804Z"/><path class="cls-1" d="M120.6227,91.8874a13.22971,13.22971,0,0,1,2.1387-.1836,13.87016,13.87016,0,0,1,2.1845.1836v17.8047h7.4815a7.57236,7.57236,0,0,1,.1211.9824c.01951.3067.0273.6036.0273.8868,0,.3183-.00779.6308-.0273.9433a7.29912,7.29912,0,0,1-.1211.9746H120.6227Z"/><path class="cls-1" d="M143.3366,113.8406a9.65274,9.65274,0,0,1-4.2041-.8438,7.7251,7.7251,0,0,1-2.917-2.3223,10.11068,10.11068,0,0,1-1.6973-3.5136,16.65631,16.65631,0,0,1-.5547-4.4336,16.94351,16.94351,0,0,1,.5547-4.459,10.24426,10.24426,0,0,1,1.6973-3.5605,7.66057,7.66057,0,0,1,2.917-2.3418,10.94852,10.94852,0,0,1,8.4013,0,7.71985,7.71985,0,0,1,2.917,2.3418,10.27787,10.27787,0,0,1,1.6973,3.5605,17.1412,17.1412,0,0,1,.5615,4.459,16.84842,16.84842,0,0,1-.5615,4.4336,10.144,10.144,0,0,1-1.6973,3.5136,7.78558,7.78558,0,0,1-2.917,2.3223A9.618,9.618,0,0,1,143.3366,113.8406Zm0-3.6602q4.65225,0,4.65041-7.4531a11.026,11.026,0,0,0-1.12311-5.5879,3.81942,3.81942,0,0,0-3.499-1.8613q-4.7226,0-4.7188,7.4492Q138.6461,110.1775,143.3366,110.1804Zm.5693-23.2832c.4385-.0547.9277-.1074,1.45411-.1504.52829-.0351,1.07029-.0586,1.60449-.0586.52151,0,1.02251.0235,1.5039.0586.4863.043.89161.0957,1.2315.1504L145.279,90.0203a6.58835,6.58835,0,0,1-1.07521.1542c-.3653.0196-.711.0293-1.05079.0293a12.997,12.997,0,0,1-2.18361-.1835Z"/><path class="cls-1" d="M168.2047,102.2781a13.11111,13.11111,0,0,1,2.1582-.1778,13.78767,13.78767,0,0,1,2.1993.1778v10.6054a14.62971,14.62971,0,0,1-3.2618.7657,26.63184,26.63184,0,0,1-2.958.1914,11.92875,11.92875,0,0,1-4.6299-.8243,8.91144,8.91144,0,0,1-3.3017-2.3144,9.72463,9.72463,0,0,1-1.9824-3.5293,14.32452,14.32452,0,0,1-.6651-4.4453,13.91161,13.91161,0,0,1,.6973-4.459,10.36938,10.36938,0,0,1,1.998-3.5605,8.94945,8.94945,0,0,1,3.2139-2.3418,10.608,10.608,0,0,1,4.3379-.8379,18.70553,18.70553,0,0,1,2.6875.1757,10.84757,10.84757,0,0,1,2.5996.75,6.76843,6.76843,0,0,1-.3603,1.7579c-.209.5742-.4258,1.1464-.66219,1.7265a13.40213,13.40213,0,0,0-1.86131-.5097,10.41929,10.41929,0,0,0-1.9219-.1504,5.42444,5.42444,0,0,0-4.4335,1.8789,8.61581,8.61581,0,0,0-1.542,5.5703q0,3.69435,1.5293,5.5137a5.562,5.562,0,0,0,4.5058,1.8164,5.87925,5.87925,0,0,0,.9151-.0606c.26951-.043.5136-.0781.7382-.1211Z"/><path class="cls-1" d="M176.401,91.8874a13.66647,13.66647,0,0,1,2.19919-.1836,14.141,14.141,0,0,1,2.21881.1836v21.5918a14.00486,14.00486,0,0,1-2.19141.1856,13.79323,13.79323,0,0,1-2.22659-.1856Z"/><path class="cls-1" d="M199.2907,109.3972a11.95729,11.95729,0,0,1,.6426,1.7246,12.42641,12.42641,0,0,1,.3808,1.7891,14.481,14.481,0,0,1-2.8096.7539,19.27793,19.27793,0,0,1-2.68749.1758,11.26307,11.26307,0,0,1-4.48141-.8243,8.845,8.845,0,0,1-3.2217-2.3144,9.87517,9.87517,0,0,1-1.9697-3.5293,14.41119,14.41119,0,0,1-.6621-4.4453,13.72644,13.72644,0,0,1,.6972-4.459,10.24415,10.24415,0,0,1,1.9903-3.5605,9.03456,9.03456,0,0,1,3.2138-2.3418,10.64573,10.64573,0,0,1,4.3457-.8379,17.97788,17.97788,0,0,1,2.6475.1757,11.666,11.666,0,0,1,2.6318.75,6.52577,6.52577,0,0,1-.35739,1.7579c-.20411.5742-.42091,1.1464-.65721,1.7265a13.444,13.444,0,0,0-1.8691-.5097,10.36165,10.36165,0,0,0-1.9219-.1504A5.39947,5.39947,0,0,0,190.777,97.157a8.57579,8.57579,0,0,0-1.54391,5.5703q0,7.33005,6.206,7.3301a11.22188,11.22188,0,0,0,1.958-.1485A13.68632,13.68632,0,0,0,199.2907,109.3972Z"/><path class="cls-1" d="M211.4801,113.8406a9.64782,9.64782,0,0,1-4.20109-.8438,7.79308,7.79308,0,0,1-2.91221-2.3223,9.95966,9.95966,0,0,1-1.6982-3.5136,16.694,16.694,0,0,1-.5537-4.4336,16.982,16.982,0,0,1,.5537-4.459,10.092,10.092,0,0,1,1.6982-3.5605A7.72723,7.72723,0,0,1,207.279,92.366a10.97786,10.97786,0,0,1,8.413,0,7.73913,7.73913,0,0,1,2.90919,2.3418,10.26333,10.26333,0,0,1,1.6983,3.5605,16.984,16.984,0,0,1,.5566,4.459,16.69554,16.69554,0,0,1-.5566,4.4336,10.12969,10.12969,0,0,1-1.6983,3.5136,7.80521,7.80521,0,0,1-2.90919,2.3223A9.68278,9.68278,0,0,1,211.4801,113.8406Zm0-3.6602q4.6626,0,4.6651-7.4531a11.00638,11.00638,0,0,0-1.1309-5.5879,3.79571,3.79571,0,0,0-3.499-1.8613q-4.72275,0-4.7178,7.4492Q206.7975,110.1775,211.4801,110.1804Z"/><path class="cls-1" d="M51.2731,142.7527a12.0693,12.0693,0,0,1,.6426,1.7265,11.70213,11.70213,0,0,1,.373,1.7852,13.98684,13.98684,0,0,1-2.80369.7539,19.29917,19.29917,0,0,1-2.68551.1777,11.22249,11.22249,0,0,1-4.48149-.8281,8.89133,8.89133,0,0,1-3.22171-2.3047,9.80715,9.80715,0,0,1-1.9697-3.5351,14.37233,14.37233,0,0,1-.6621-4.4453,13.53347,13.53347,0,0,1,.6973-4.459,10.3385,10.3385,0,0,1,1.9873-3.5606,9.06614,9.06614,0,0,1,3.2168-2.3418,10.667,10.667,0,0,1,4.3379-.8437,17.8916,17.8916,0,0,1,2.6523.1816,11.5558,11.5558,0,0,1,2.6348.752,6.52753,6.52753,0,0,1-.3594,1.7578c-.2022.5683-.419,1.1484-.6631,1.7246a13.33548,13.33548,0,0,0-1.8613-.5078,10.67157,10.67157,0,0,0-1.91409-.1543,5.41174,5.41174,0,0,0-4.43361,1.8789,8.58625,8.58625,0,0,0-1.5439,5.5723q0,7.33005,6.2138,7.33a11.1947,11.1947,0,0,0,1.9473-.1504A13.15213,13.15213,0,0,0,51.2731,142.7527Z"/><path class="cls-1" d="M63.4625,147.196a9.70017,9.70017,0,0,1-4.2041-.8437,7.75875,7.75875,0,0,1-2.9091-2.3242,9.91121,9.91121,0,0,1-1.69829-3.5137,16.63942,16.63942,0,0,1-.55661-4.4316,16.96255,16.96255,0,0,1,.55661-4.459,10.10641,10.10641,0,0,1,1.69829-3.5606,7.7443,7.7443,0,0,1,2.9091-2.3418,10.90843,10.90843,0,0,1,8.4131,0,7.79167,7.79167,0,0,1,2.9121,2.3418,10.45432,10.45432,0,0,1,1.6983,3.5606,16.99991,16.99991,0,0,1,.5566,4.459,16.6758,16.6758,0,0,1-.5566,4.4316,10.25205,10.25205,0,0,1-1.6983,3.5137,7.80645,7.80645,0,0,1-2.9121,2.3242A9.689,9.689,0,0,1,63.4625,147.196Zm0-3.6621q4.65977,0,4.6631-7.4511a11.00337,11.00337,0,0,0-1.1289-5.5879,3.80576,3.80576,0,0,0-3.5009-1.8633q-4.71975,0-4.7159,7.4512C58.7799,141.0476,60.3493,143.5339,63.4625,143.5339Z"/><path class="cls-1" d="M76.4704,125.239a13.16234,13.16234,0,0,1,2.1337-.1797,13.92768,13.92768,0,0,1,2.1915.1797v17.8145h7.4785a8.27863,8.27863,0,0,1,.124.9746c.0195.3086.0322.6074.0322.8867,0,.3203-.0127.6347-.0322.9433a8.29426,8.29426,0,0,1-.124.9786H76.4704Z"/><path class="cls-1" d="M99.1793,147.196a9.7375,9.7375,0,0,1-4.2089-.8437,7.90159,7.90159,0,0,1-2.9102-2.3242,10.03749,10.03749,0,0,1-1.6924-3.5137,16.63515,16.63515,0,0,1-.5615-4.4316,16.95906,16.95906,0,0,1,.5615-4.459,10.23573,10.23573,0,0,1,1.6924-3.5606,7.88628,7.88628,0,0,1,2.9102-2.3418,10.90818,10.90818,0,0,1,8.413,0,7.77731,7.77731,0,0,1,2.917,2.3418,10.23219,10.23219,0,0,1,1.6924,3.5606,17.08129,17.08129,0,0,1,.5615,4.459,16.75414,16.75414,0,0,1-.5615,4.4316,10.034,10.034,0,0,1-1.6924,3.5137,7.7921,7.7921,0,0,1-2.917,2.3242A9.6757,9.6757,0,0,1,99.1793,147.196Zm0-3.6621q4.6509,0,4.6573-7.4511a11.00106,11.00106,0,0,0-1.1309-5.5879,3.78717,3.78717,0,0,0-3.4912-1.8633q-4.7226,0-4.7256,7.4512Q94.4889,143.53,99.1793,143.5339Z"/><path class="cls-1" d="M112.7916,125.239a15.25022,15.25022,0,0,1,2.3077-.1797,14.70714,14.70714,0,0,1,2.3144.1797l4.9551,12.377,5.1084-12.377a10.81427,10.81427,0,0,1,2.0732-.1797,12.84746,12.84746,0,0,1,2.18661.1797l1.02049,21.5977a13.75093,13.75093,0,0,1-2.1592.1816,11.258,11.258,0,0,1-2.0176-.1816l-.5342-14.6582-4.3857,10.1543c-.2842.039-.5742.0722-.874.1035-.2969.0293-.6016.0449-.8994.0449-.2569,0-.52839-.0098-.7852-.0313a5.80737,5.80737,0,0,1-.8037-.1171l-4.0889-10.3633-.4199,14.8672a9.9836,9.9836,0,0,1-1.8623.1816,11.3807,11.3807,0,0,1-1.98239-.1816Z"/><path class="cls-1" d="M136.7848,125.2078c.6426-.0977,1.3809-.1778,2.2197-.2383.8409-.0586,1.89651-.0918,3.1612-.0918a16.9661,16.9661,0,0,1,3.11331.2734,7.748,7.748,0,0,1,2.58.916,4.85773,4.85773,0,0,1,1.72459,1.7227,5.30557,5.30557,0,0,1,.6299,2.7051,5.5001,5.5001,0,0,1-.2842,1.791,4.77328,4.77328,0,0,1-.7714,1.4375,4.67611,4.67611,0,0,1-1.0752,1.0215,2.97572,2.97572,0,0,1-1.2315.5,6.02914,6.02914,0,0,1,1.5215.4179,5.28275,5.28275,0,0,1,1.56931.9766,5.0905,5.0905,0,0,1,1.19829,1.668,5.67627,5.67627,0,0,1,.4814,2.4609,6.28383,6.28383,0,0,1-.7304,3.2012,5.44748,5.44748,0,0,1-1.99029,1.9648,8.42026,8.42026,0,0,1-2.88381.9902,20.86365,20.86365,0,0,1-3.4306.2715c-.9268,0-1.8418-.0254-2.7412-.0703-.90139-.0547-1.9239-.1484-3.0606-.289Zm5.6777,8.7773a6.95411,6.95411,0,0,0,1.3956-.1387,2.79557,2.79557,0,0,0,1.124-.4824,2.26018,2.26018,0,0,0,.75-.9277,3.413,3.413,0,0,0,.2773-1.4864,2.88507,2.88507,0,0,0-.31739-1.4296,2.40759,2.40759,0,0,0-.81051-.8692,3.02769,3.02769,0,0,0-1.1113-.4219,7.24768,7.24768,0,0,0-1.2188-.1054,9.09655,9.09655,0,0,0-1.4082.0879v5.7734Zm-1.3193,9.5488c.2793.0371.6045.0664.9746.0899.3731.0175.7051.0312,1.003.0312a8.29121,8.29121,0,0,0,1.3271-.1211,3.95979,3.95979,0,0,0,1.2842-.4668,2.78653,2.78653,0,0,0,.9883-.9609,2.92209,2.92209,0,0,0,.4004-1.6055,3.46815,3.46815,0,0,0-.3047-1.5508,2.50578,2.50578,0,0,0-.8516-.9882,3.52053,3.52053,0,0,0-1.3203-.5254,8.6392,8.6392,0,0,0-1.70019-.1524H141.1432Z"/><path class="cls-1" d="M154.904,125.239a13.429,13.429,0,0,1,2.18649-.1797,14.05393,14.05393,0,0,1,2.2197.1797v21.5977a13.91112,13.91112,0,0,1-2.1924.1816,13.58549,13.58549,0,0,1-2.21379-.1816Z"/><path class="cls-1" d="M168.529,125.239c.42569-.0586.82609-.1055,1.21189-.1348.373-.0312.7988-.0449,1.2519-.0449.4053,0,.791.0137,1.1768.0449.372.0293.8008.0762,1.2588.1348l6.76361,21.5977a16.56814,16.56814,0,0,1-2.41111.1816,13.39032,13.39032,0,0,1-2.2187-.1816l-1.2071-4.3262h-7.1386l-1.23149,4.3262a12.61355,12.61355,0,0,1-2.07811.1816,13.29858,13.29858,0,0,1-2.1944-.1816Zm4.81149,13.6348-2.4893-9.0684-2.6191,9.0684Z"/><path class="cls-1" d="M182.6208,125.239a9.264,9.264,0,0,1,1.7734-.1797,10.05344,10.05344,0,0,1,1.8613.1797l8.3526,13.7578V125.239a12.42371,12.42371,0,0,1,2.0634-.1797,8.86845,8.86845,0,0,1,1.8086.1797v21.5977a9.48539,9.48539,0,0,1-1.748.1816,10.214,10.214,0,0,1-1.8262-.1816l-8.4141-13.7266v13.7266a10.44971,10.44971,0,0,1-1.9541.1816,9.99075,9.99075,0,0,1-1.9169-.1816Z"/><path class="cls-1" d="M211.4801,147.196a9.67666,9.67666,0,0,1-4.20109-.8437,7.79964,7.79964,0,0,1-2.91221-2.3242,9.94512,9.94512,0,0,1-1.6982-3.5137,16.6788,16.6788,0,0,1-.5537-4.4316,17.00245,17.00245,0,0,1,.5537-4.459,10.141,10.141,0,0,1,1.6982-3.5606,7.7849,7.7849,0,0,1,2.91221-2.3418,10.90817,10.90817,0,0,1,8.413,0,7.797,7.797,0,0,1,2.90919,2.3418,10.314,10.314,0,0,1,1.6983,3.5606,17.00454,17.00454,0,0,1,.5566,4.459,16.68031,16.68031,0,0,1-.5566,4.4316,10.11462,10.11462,0,0,1-1.6983,3.5137,7.8118,7.8118,0,0,1-2.90919,2.3242A9.71169,9.71169,0,0,1,211.4801,147.196Zm0-3.6621q4.6626,0,4.6651-7.4511a11.00106,11.00106,0,0,0-1.1309-5.5879,3.79344,3.79344,0,0,0-3.499-1.8633q-4.72275,0-4.7178,7.4512Q206.7975,143.53,211.4801,143.5339Z"/><path class="cls-2" d="M405.4958,102.9578a60.01848,60.01848,0,0,0-73.5176-42.4434,73.274,73.274,0,0,0-45.0215,35.3008,75.645,75.645,0,0,0-8.6231,51.3808h7.5586c-7.2011-34.5781,14.084-70.4179,48.00981-79.5058a52.5919,52.5919,0,0,1,64.41989,37.1972,41.33128,41.33128,0,0,1-29.2324,50.6211,32.31372,32.31372,0,0,1-39.5879-22.8574,25.12367,25.12367,0,0,1,17.7656-30.7637,19.36974,19.36974,0,0,1,23.6973,13.6817,14.75777,14.75777,0,0,1-10.4238,18.0547,11.06776,11.06776,0,0,1-13.5352-7.8086,8.11885,8.11885,0,0,1,5.73051-9.9199,5.73592,5.73592,0,0,1,7.02539,4.0507l7.1777-1.9199a13.17181,13.17181,0,0,0-16.1289-9.3086,15.53823,15.53823,0,0,0-10.9668,19.0195,18.48343,18.48343,0,0,0,22.627,13.0586,22.1953,22.1953,0,0,0,15.6699-27.1464,26.81147,26.81147,0,0,0-32.7988-18.9414,32.54735,32.54735,0,0,0-23.0137,39.8691,39.79963,39.79963,0,0,0,38.3281,29.4824,40.12449,40.12449,0,0,0,10.3633-1.3711,48.75876,48.75876,0,0,0,34.4766-59.7304Z"/><path class="cls-3" d="M412.9215,35.4973A114.41467,114.41467,0,0,0,234.5329,130.407a115.67311,115.67311,0,0,0,1.2324,16.789h7.498a108.396,108.396,0,0,1-1.3047-16.789A106.98561,106.98561,0,0,1,408.6168,41.5559Z"/><path class="cls-4" d="M405.0778,46.5354a100.87792,100.87792,0,0,0-157,83.8716,101.51015,101.51015,0,0,0,1.4004,16.789H257.025A93.45742,93.45742,0,0,1,400.7731,52.594Z"/><path class="cls-5" d="M396.7653,58.2292A86.53992,86.53992,0,0,0,262.4137,130.407a87.00785,87.00785,0,0,0,1.6289,16.789h7.5957a79.19111,79.19111,0,0,1,77.3633-95.9467,78.71577,78.71577,0,0,1,43.4668,13.0346Z"/></svg>